<svg xmlns="http://www.w3.org/2000/svg" viewBox="0 0 800 500" width="800" height="500" preserveAspectRatio="xMidYMid slice" role="img" aria-label="Катер Comfort">
  <defs>
    <linearGradient id="bk-sky" x1="0" y1="0" x2="0" y2="1">
      <stop offset="0" stop-color="#e4f3f4"/>
      <stop offset="0.7" stop-color="#cfedef"/>
      <stop offset="1" stop-color="#b3dde2"/>
    </linearGradient>
    <linearGradient id="bk-water" x1="0" y1="0" x2="0" y2="1">
      <stop offset="0" stop-color="#4fb0bf"/>
      <stop offset="1" stop-color="#176173"/>
    </linearGradient>
  </defs>
  <rect width="800" height="500" fill="url(#bk-sky)"/>
  <circle cx="170" cy="116" r="60" fill="#ffffff" opacity="0.5"/>
  <g fill="#ffffff" opacity="0.4">
    <ellipse cx="600" cy="124" rx="58" ry="16"/>
    <ellipse cx="650" cy="112" rx="42" ry="14"/>
  </g>
  <rect y="330" width="800" height="170" fill="url(#bk-water)"/>
  <g stroke="#e2f5f7" stroke-opacity="0.45" stroke-width="4" fill="none">
    <path d="M110 392 q60 -12 120 0 t120 0"/>
    <path d="M540 432 q60 -12 120 0 t120 0"/>
  </g>
  <g transform="translate(400 388)">
    <path d="M-270 40 q270 30 0 90 q-210 -24 -270 -72 z" fill="#0a4250" opacity="0.18"/>
    <path d="M-220 40 q220 80 440 0 l-44 74 q-186 52 -372 0 z" fill="#0c3a5a"/>
    <path d="M-186 36 q186 64 372 0 l-22 38 q-172 46 -350 0 z" fill="#1d8ea0"/>
    <rect x="-112" y="-26" width="224" height="66" rx="14" fill="#f2fafb"/>
    <rect x="-94" y="-14" width="84" height="42" rx="6" fill="#7fcdd6"/>
    <rect x="6" y="-14" width="84" height="42" rx="6" fill="#7fcdd6"/>
    <rect x="-12" y="-86" width="16" height="60" rx="5" fill="#0c3a5a"/>
    <path d="M4 -82 l72 38 -72 12 z" fill="#2fa6b8"/>
  </g>
</svg>
