<svg xmlns="http://www.w3.org/2000/svg" viewBox="0 0 800 500" width="800" height="500" preserveAspectRatio="xMidYMid slice" role="img" aria-label="Прогулочный катер Classic">
  <defs>
    <linearGradient id="bc-sky" x1="0" y1="0" x2="0" y2="1">
      <stop offset="0" stop-color="#e6f1f8"/>
      <stop offset="0.7" stop-color="#d2e6f0"/>
      <stop offset="1" stop-color="#b9d4e4"/>
    </linearGradient>
    <linearGradient id="bc-water" x1="0" y1="0" x2="0" y2="1">
      <stop offset="0" stop-color="#6fa0bb"/>
      <stop offset="1" stop-color="#1f5f80"/>
    </linearGradient>
  </defs>
  <rect width="800" height="500" fill="url(#bc-sky)"/>
  <circle cx="640" cy="118" r="64" fill="#ffffff" opacity="0.5"/>
  <g fill="#ffffff" opacity="0.45">
    <ellipse cx="180" cy="120" rx="56" ry="16"/>
    <ellipse cx="226" cy="110" rx="40" ry="14"/>
  </g>
  <rect y="330" width="800" height="170" fill="url(#bc-water)"/>
  <g stroke="#dff0f6" stroke-opacity="0.4" stroke-width="4" fill="none">
    <path d="M70 392 q60 -12 120 0 t120 0"/>
    <path d="M520 432 q60 -12 120 0 t120 0"/>
  </g>
  <g transform="translate(400 392)">
    <path d="M-250 36 q250 28 0 84 q-196 -22 -250 -66 z" fill="#0d4c70" opacity="0.18"/>
    <path d="M-200 36 q200 76 400 0 l-40 70 q-170 50 -340 0 z" fill="#0f4c75"/>
    <path d="M-168 32 q168 60 336 0 l-20 36 q-156 44 -312 0 z" fill="#1f7aa8"/>
    <rect x="-92" y="-20" width="184" height="60" rx="12" fill="#f3f7fa"/>
    <rect x="-74" y="-8" width="148" height="36" rx="6" fill="#8cc0db"/>
    <rect x="-10" y="-78" width="16" height="58" rx="5" fill="#0f4c75"/>
    <path d="M6 -74 l68 36 -68 12 z" fill="#155f86"/>
  </g>
</svg>
