<svg xmlns="http://www.w3.org/2000/svg" viewBox="0 0 800 500" width="800" height="500" preserveAspectRatio="xMidYMid slice" role="img" aria-label=" 072>4=K5 <>ABK">
  <defs>
    <linearGradient id="b-sky" x1="0" y1="0" x2="0" y2="1">
      <stop offset="0" stop-color="#2a3f5a"/>
      <stop offset="0.55" stop-color="#5a5f7e"/>
      <stop offset="0.8" stop-color="#b07a78"/>
      <stop offset="1" stop-color="#e0a07a"/>
    </linearGradient>
    <linearGradient id="b-water" x1="0" y1="0" x2="0" y2="1">
      <stop offset="0" stop-color="#7a6a70"/>
      <stop offset="0.4" stop-color="#33506a"/>
      <stop offset="1" stop-color="#10283c"/>
    </linearGradient>
  </defs>
  <rect width="800" height="500" fill="url(#b-sky)"/>
  <g fill="#fbe9cf" opacity="0.8">
    <circle cx="150" cy="80" r="2"/>
    <circle cx="640" cy="60" r="2.4"/>
    <circle cx="520" cy="120" r="1.6"/>
    <circle cx="300" cy="50" r="1.6"/>
  </g>
  <circle cx="660" cy="300" r="120" fill="#f3b07e" opacity="0.35"/>

  <!-- city silhouette -->
  <g fill="#1f3346">
    <rect x="40" y="300" width="120" height="46"/>
    <rect x="640" y="296" width="120" height="50"/>
    <path d="M690 296 v-30 l8 -18 8 18 v30 z"/>
  </g>

  <!-- drawbridge raised -->
  <g fill="#22384c">
    <rect x="300" y="296" width="30" height="50"/>
    <rect x="470" y="296" width="30" height="50"/>
    <rect x="284" y="320" width="34" height="16"/>
    <rect x="482" y="320" width="34" height="16"/>
    <rect x="190" y="332" width="110" height="14"/>
    <rect x="500" y="332" width="110" height="14"/>
    <path d="M330 332 l70 -96 12 7 -58 89 z"/>
    <path d="M470 332 l-70 -96 -12 7 58 89 z"/>
  </g>
  <g fill="#ffd9a0" opacity="0.85">
    <circle cx="312" cy="306" r="3"/>
    <circle cx="486" cy="306" r="3"/>
  </g>

  <rect y="346" width="800" height="154" fill="url(#b-water)"/>
  <g fill="#f3b07e" opacity="0.4">
    <rect x="636" y="356" width="48" height="8" rx="4"/>
    <rect x="624" y="380" width="72" height="7" rx="3.5"/>
    <rect x="640" y="406" width="40" height="6" rx="3"/>
  </g>
  <g fill="#ffd9a0" opacity="0.5">
    <rect x="306" y="356" width="14" height="40" rx="3"/>
    <rect x="480" y="356" width="14" height="40" rx="3"/>
  </g>
</svg>
