<svg xmlns="http://www.w3.org/2000/svg" viewBox="0 0 800 500" width="800" height="500" preserveAspectRatio="xMidYMid slice" role="img" aria-label="520 8 284K 3>@>40">
  <defs>
    <linearGradient id="n-sky" x1="0" y1="0" x2="0" y2="1">
      <stop offset="0" stop-color="#dcecf5"/>
      <stop offset="0.7" stop-color="#cfe3ef"/>
      <stop offset="1" stop-color="#bcd6e6"/>
    </linearGradient>
    <linearGradient id="n-water" x1="0" y1="0" x2="0" y2="1">
      <stop offset="0" stop-color="#7ba7c0"/>
      <stop offset="1" stop-color="#1f5f80"/>
    </linearGradient>
  </defs>
  <rect width="800" height="500" fill="url(#n-sky)"/>
  <circle cx="120" cy="100" r="58" fill="#ffffff" opacity="0.45"/>

  <!-- palace skyline -->
  <g fill="#41586a">
    <rect x="60" y="300" width="240" height="46"/>
    <rect x="120" y="276" width="120" height="24"/>
    <path d="M176 276 a20 20 0 0140 0 z" fill="#41586a"/>
    <rect x="194" y="236" width="4" height="42"/>
    <rect x="330" y="288" width="180" height="58"/>
    <rect x="540" y="306" width="200" height="40"/>
    <path d="M620 306 v-40 a16 16 0 0132 0 v40 z"/>
    <rect x="634" y="232" width="4" height="36"/>
  </g>

  <!-- rostral columns -->
  <g fill="#7a4a3a">
    <rect x="430" y="250" width="16" height="96"/>
    <rect x="470" y="250" width="16" height="96"/>
    <circle cx="438" cy="246" r="8" fill="#d9b27c"/>
    <circle cx="478" cy="246" r="8" fill="#d9b27c"/>
  </g>

  <rect y="346" width="800" height="154" fill="url(#n-water)"/>
  <g opacity="0.35" fill="#41586a">
    <rect x="60" y="346" width="240" height="22"/>
    <rect x="330" y="346" width="180" height="22"/>
  </g>
  <g stroke="#d6ebf1" stroke-opacity="0.4" stroke-width="4" fill="none">
    <path d="M80 410 q60 -12 120 0 t120 0"/>
    <path d="M520 446 q60 -12 120 0 t120 0"/>
  </g>

  <g transform="translate(560 420)">
    <path d="M-120 30 q120 50 240 0 l-26 44 q-96 30 -188 0 z" fill="#0f4c75"/>
    <rect x="-50" y="-12" width="100" height="34" rx="7" fill="#eef5f9"/>
    <rect x="-38" y="-4" width="76" height="20" rx="4" fill="#8cc0db"/>
  </g>
</svg>
